<mxfile host="65bd71144e">
    <diagram id="8cJZui_EhbEZiuhcFInI" name="Page-1">
        <mxGraphModel dx="1155" dy="628" grid="1" gridSize="10" guides="1" tooltips="1" connect="1" arrows="1" fold="1" page="1" pageScale="1" pageWidth="850" pageHeight="1100" math="0" shadow="0">
            <root>
                <mxCell id="0"/>
                <mxCell id="1" parent="0"/>
                <mxCell id="16" style="edgeStyle=none;html=1;exitX=1;exitY=0.5;exitDx=0;exitDy=0;entryX=-0.006;entryY=0.457;entryDx=0;entryDy=0;entryPerimeter=0;" edge="1" parent="1" source="2" target="6">
                    <mxGeometry relative="1" as="geometry"/>
                </mxCell>
                <mxCell id="22" style="edgeStyle=none;html=1;exitX=1;exitY=0.25;exitDx=0;exitDy=0;entryX=0;entryY=0.5;entryDx=0;entryDy=0;" edge="1" parent="1" source="2" target="21">
                    <mxGeometry relative="1" as="geometry"/>
                </mxCell>
                <mxCell id="25" style="edgeStyle=none;html=1;exitX=1;exitY=0.75;exitDx=0;exitDy=0;entryX=0;entryY=0.25;entryDx=0;entryDy=0;" edge="1" parent="1" source="2" target="7">
                    <mxGeometry relative="1" as="geometry"/>
                </mxCell>
                <mxCell id="27" value="N" style="edgeLabel;html=1;align=center;verticalAlign=middle;resizable=0;points=[];" vertex="1" connectable="0" parent="25">
                    <mxGeometry x="0.8145" y="3" relative="1" as="geometry">
                        <mxPoint x="7" y="-1" as="offset"/>
                    </mxGeometry>
                </mxCell>
                <mxCell id="2" value="&lt;div&gt;User&lt;/div&gt;&lt;div&gt;-----------&lt;/div&gt;&lt;div&gt;User_ID (PK)&lt;/div&gt;&lt;div&gt;Name&lt;/div&gt;&lt;div&gt;Email&lt;/div&gt;&lt;div&gt;Password&lt;/div&gt;&lt;div&gt;&lt;br&gt;&lt;/div&gt;" style="rounded=0;whiteSpace=wrap;html=1;" vertex="1" parent="1">
                    <mxGeometry x="60" y="60" width="170" height="130" as="geometry"/>
                </mxCell>
                <mxCell id="4" value="&lt;div&gt;Category&lt;/div&gt;&lt;div&gt;---------&lt;/div&gt;&lt;div&gt;Category_ID (PK)&lt;/div&gt;&lt;div&gt;Name&lt;/div&gt;&lt;div&gt;&lt;br&gt;&lt;/div&gt;" style="rounded=0;whiteSpace=wrap;html=1;" vertex="1" parent="1">
                    <mxGeometry x="70" y="260" width="120" height="100" as="geometry"/>
                </mxCell>
                <mxCell id="17" style="edgeStyle=none;html=1;exitX=0;exitY=0.75;exitDx=0;exitDy=0;entryX=1;entryY=0.5;entryDx=0;entryDy=0;" edge="1" parent="1" source="6" target="4">
                    <mxGeometry relative="1" as="geometry"/>
                </mxCell>
                <mxCell id="6" value="&lt;div&gt;&lt;div&gt;Clothing_Item&lt;/div&gt;&lt;div&gt;--------------&lt;/div&gt;&lt;div&gt;Clothing_ID (PK)&lt;/div&gt;&lt;div&gt;Name&lt;/div&gt;&lt;div&gt;Color&lt;/div&gt;&lt;div&gt;Size&lt;/div&gt;&lt;div&gt;Category_ID (FK)&lt;/div&gt;&lt;/div&gt;&lt;div&gt;&lt;br&gt;&lt;/div&gt;" style="rounded=0;whiteSpace=wrap;html=1;" vertex="1" parent="1">
                    <mxGeometry x="540" y="210" width="170" height="140" as="geometry"/>
                </mxCell>
                <mxCell id="28" style="edgeStyle=none;html=1;exitX=0.5;exitY=0;exitDx=0;exitDy=0;entryX=0.5;entryY=1;entryDx=0;entryDy=0;" edge="1" parent="1" source="7" target="6">
                    <mxGeometry relative="1" as="geometry"/>
                </mxCell>
                <mxCell id="31" style="edgeStyle=none;html=1;exitX=0;exitY=0.5;exitDx=0;exitDy=0;entryX=1;entryY=0.5;entryDx=0;entryDy=0;" edge="1" parent="1" source="7" target="20">
                    <mxGeometry relative="1" as="geometry"/>
                </mxCell>
                <mxCell id="7" value="&lt;p&gt;&lt;strong&gt;Outfit&lt;br&gt;&lt;/strong&gt;&lt;strong style=&quot;background-color: initial;&quot;&gt;---------------------&lt;/strong&gt;&lt;/p&gt;&lt;p&gt;&lt;strong style=&quot;background-color: initial;&quot;&gt;Outfit_ID&lt;/strong&gt;&lt;span style=&quot;background-color: initial;&quot;&gt; (PK&lt;/span&gt;&lt;/p&gt;&lt;p&gt;&lt;strong style=&quot;background-color: initial;&quot;&gt;User_ID&lt;/strong&gt;&lt;span style=&quot;background-color: initial;&quot;&gt; (FK)&lt;br&gt;&lt;/span&gt;&lt;strong style=&quot;background-color: initial;&quot;&gt;Name&lt;br&gt;&lt;/strong&gt;&lt;strong style=&quot;background-color: initial;&quot;&gt;Description&lt;/strong&gt;&lt;/p&gt;" style="rounded=0;whiteSpace=wrap;html=1;" vertex="1" parent="1">
                    <mxGeometry x="540" y="445" width="170" height="130" as="geometry"/>
                </mxCell>
                <mxCell id="12" value="1" style="text;html=1;align=center;verticalAlign=middle;resizable=0;points=[];autosize=1;strokeColor=none;fillColor=none;" vertex="1" parent="1">
                    <mxGeometry x="240" y="100" width="30" height="30" as="geometry"/>
                </mxCell>
                <mxCell id="13" value="N" style="text;html=1;align=center;verticalAlign=middle;resizable=0;points=[];autosize=1;strokeColor=none;fillColor=none;" vertex="1" parent="1">
                    <mxGeometry x="500" y="230" width="30" height="30" as="geometry"/>
                </mxCell>
                <mxCell id="18" value="N" style="text;html=1;align=center;verticalAlign=middle;resizable=0;points=[];autosize=1;strokeColor=none;fillColor=none;" vertex="1" parent="1">
                    <mxGeometry x="490" y="290" width="30" height="30" as="geometry"/>
                </mxCell>
                <mxCell id="19" value="1" style="text;html=1;align=center;verticalAlign=middle;resizable=0;points=[];autosize=1;strokeColor=none;fillColor=none;" vertex="1" parent="1">
                    <mxGeometry x="210" y="280" width="30" height="30" as="geometry"/>
                </mxCell>
                <mxCell id="20" value="&lt;p&gt;&lt;strong&gt;Outfit_Items&lt;br&gt;&lt;/strong&gt;---------------------------&lt;br&gt;&lt;strong style=&quot;background-color: initial;&quot;&gt;Outfit_Item_ID&lt;/strong&gt;&lt;span style=&quot;background-color: initial;&quot;&gt; (PK)&lt;br&gt;&lt;/span&gt;&lt;strong style=&quot;background-color: initial;&quot;&gt;Outfit_ID&lt;/strong&gt;&lt;span style=&quot;background-color: initial;&quot;&gt; (FK)&lt;br&gt;&lt;/span&gt;&lt;strong style=&quot;background-color: initial;&quot;&gt;Clothing_ID&lt;/strong&gt;&lt;span style=&quot;background-color: initial;&quot;&gt; (FK)&lt;/span&gt;&lt;/p&gt;" style="rounded=0;whiteSpace=wrap;html=1;" vertex="1" parent="1">
                    <mxGeometry x="70" y="470" width="135" height="105" as="geometry"/>
                </mxCell>
                <mxCell id="21" value="&lt;p&gt;&lt;strong&gt;Profile&lt;br&gt;&lt;/strong&gt;---------------------------&lt;br&gt;&lt;strong style=&quot;background-color: initial;&quot;&gt;Profile_ID&lt;/strong&gt;&lt;span style=&quot;background-color: initial;&quot;&gt; (PK)&lt;br&gt;&lt;/span&gt;&lt;strong style=&quot;background-color: initial;&quot;&gt;User_ID&lt;/strong&gt;&lt;span style=&quot;background-color: initial;&quot;&gt; (FK)&lt;br&gt;&lt;/span&gt;&lt;strong style=&quot;background-color: initial;&quot;&gt;Bio&lt;br&gt;&lt;/strong&gt;&lt;strong style=&quot;background-color: initial;&quot;&gt;Profile_Picture&lt;/strong&gt;&lt;/p&gt;" style="rounded=0;whiteSpace=wrap;html=1;" vertex="1" parent="1">
                    <mxGeometry x="540" y="50" width="160" height="120" as="geometry"/>
                </mxCell>
                <mxCell id="23" value="1" style="text;html=1;align=center;verticalAlign=middle;resizable=0;points=[];autosize=1;strokeColor=none;fillColor=none;" vertex="1" parent="1">
                    <mxGeometry x="240" y="60" width="30" height="30" as="geometry"/>
                </mxCell>
                <mxCell id="24" value="1" style="text;html=1;align=center;verticalAlign=middle;resizable=0;points=[];autosize=1;strokeColor=none;fillColor=none;" vertex="1" parent="1">
                    <mxGeometry x="505" y="75" width="30" height="30" as="geometry"/>
                </mxCell>
                <mxCell id="26" value="1" style="text;html=1;align=center;verticalAlign=middle;resizable=0;points=[];autosize=1;strokeColor=none;fillColor=none;" vertex="1" parent="1">
                    <mxGeometry x="240" y="140" width="30" height="30" as="geometry"/>
                </mxCell>
                <mxCell id="29" value="1" style="text;html=1;align=center;verticalAlign=middle;resizable=0;points=[];autosize=1;strokeColor=none;fillColor=none;" vertex="1" parent="1">
                    <mxGeometry x="595" y="415" width="30" height="30" as="geometry"/>
                </mxCell>
                <mxCell id="30" value="N" style="text;html=1;align=center;verticalAlign=middle;resizable=0;points=[];autosize=1;strokeColor=none;fillColor=none;" vertex="1" parent="1">
                    <mxGeometry x="595" y="350" width="30" height="30" as="geometry"/>
                </mxCell>
                <mxCell id="32" value="1" style="text;html=1;align=center;verticalAlign=middle;resizable=0;points=[];autosize=1;strokeColor=none;fillColor=none;" vertex="1" parent="1">
                    <mxGeometry x="490" y="480" width="30" height="30" as="geometry"/>
                </mxCell>
                <mxCell id="33" value="N" style="text;html=1;align=center;verticalAlign=middle;resizable=0;points=[];autosize=1;strokeColor=none;fillColor=none;" vertex="1" parent="1">
                    <mxGeometry x="210" y="495" width="30" height="30" as="geometry"/>
                </mxCell>
            </root>
        </mxGraphModel>
    </diagram>
</mxfile>